<svg width="120" height="48" xmlns="http://www.w3.org/2000/svg" xmlns:xlink="http://www.w3.org/1999/xlink" xml:space="preserve" overflow="hidden"><g transform="translate(-44 -36)"><g><g><g><g><path d="M52.5525 20.6479 52.5525 42.8704 63.7477 26.242 58.4968 19.363C62.883 18.1522 66.8653 16.2795 70.3375 13.5601L73.7196 17.8448 80.1386 8.14638 116.609 8.14638 116.609 19.1547 108.404 19.1547 108.404 46.0218 80.136 46.0321 72.9023 35.2216 65.3825 46.0321 38.7892 46.0321 38.7892 38.6406C36.8777 43.8677 30.8432 47.0508 18.879 47.0508 1.13176 47.0508 0.271533 40.7764 9.21788e-15 33.5903L14.0346 33.5903C14.0802 35.7353 14.4423 37.2906 15.3023 38.3094 16.2078 39.3283 17.4301 39.8647 19.2413 39.8647 22.0935 39.8647 25.1718 39.0602 25.1718 35.9497 25.1718 35.2529 24.9455 34.6629 24.5835 34.1801 22.7273 31.7134 7.10796 29.89 2.71631 25.3315 0.950731 23.5081 0.407422 20.773 0.407422 18.5745 0.407422 10.1011 6.97206 6.29356 20.0562 6.29356 33.9551 6.29356 37.2454 11.1595 37.4267 19.1503L23.9116 19.1503C23.8211 17.005 23.1784 15.3293 22.2363 14.5523 21.3256 13.8011 20.5354 13.4527 19.1506 13.4797 16.2537 13.5366 14.7138 14.7667 14.7138 16.7508 14.7138 17.3409 14.895 18.0917 15.3023 18.5207 17.4301 20.934 32.5516 22.6502 36.8979 27.2621 37.5878 27.992 38.2915 28.9445 38.7892 30.2666L38.7892 21.3483C43.2795 21.5147 47.9505 21.368 52.5525 20.6479ZM88.0378 19.1839 82.9038 26.3966 94.7656 43.7497 94.7656 19.1839 88.0378 19.1839Z" fill="#191919" fill-rule="evenodd" fill-opacity="1" transform="matrix(1.01065 0 0 1 45 36.1498)"/><path d="M38.7863 8.14638C52.8008 9.17883 60.6907 5.21159 63.3979 3.45669e-15L77.7081 3.45669e-15C73.4037 12.445 59.9857 20.2423 38.7863 19.1756L38.7863 8.14638" fill="#FF5F00" fill-rule="evenodd" fill-opacity="1" transform="matrix(1.01065 0 0 1 45 36.1498)"/></g></g></g></g></g></svg>